<svg width="100" height="100" viewBox="0 0 100 100" xmlns="http://www.w3.org/2000/svg">
    <!-- Film strip -->
    <rect x="20" y="20" width="60" height="60" fill="#4A90E2" rx="2" />
    <line x1="20" y1="40" x2="80" y2="40" stroke="white" stroke-width="2" />
    <line x1="20" y1="60" x2="80" y2="60" stroke="white" stroke-width="2" />
    <circle cx="73" cy="26" r="2" fill="white" />
    <circle cx="73" cy="46" r="2" fill="white" />
    <!-- lightning bolt icon -->
    <path
        d="M53.74,24.98l-20,36c-0.18,0.33-0.51,0.52-0.87,0.52c-0.16,0-0.34-0.03-0.5-0.08
           c-0.44-0.12-0.74-0.52-0.74-0.97V38H12c-0.68,0-1.3-0.34-1.68-0.89c-0.36-0.56-0.42-1.28-0.16-1.91l14-32
           C24.48,2.48,25.2,2,26,2h12c0.66,0,1.28,0.32,1.66,0.88c0.36,0.54,0.44,1.23,0.2,1.85L32.97,22H52c0.7,0,1.36,0.38,1.72,0.98
           C53.89,23.6,53.91,24.36,53.74,24.98z"
        fill="#FFB841" stroke="black" stroke-width="2" transform="translate(7, 16) scale(1.1)" />
</svg>
